<mxfile host="app.diagrams.net" agent="Mozilla/5.0 (Windows NT 10.0; Win64; x64) AppleWebKit/537.36 (KHTML, like Gecko) Chrome/137.0.0.0 Safari/537.36 Edg/137.0.0.0" version="27.1.1">
  <diagram name="Page-1" id="9igJIeCv-4XTszwu5rqH">
    <mxGraphModel dx="1140" dy="1853" grid="1" gridSize="10" guides="1" tooltips="1" connect="1" arrows="1" fold="1" page="1" pageScale="1" pageWidth="827" pageHeight="1169" math="0" shadow="0">
      <root>
        <mxCell id="0" />
        <mxCell id="1" parent="0" />
        <mxCell id="4" value="User" style="whiteSpace=wrap;strokeWidth=2;fontSize=14;" parent="1" vertex="1">
          <mxGeometry x="627" y="20" width="92" height="54" as="geometry" />
        </mxCell>
        <mxCell id="8" value="Logs workouts" style="curved=1;startArrow=none;endArrow=block;exitX=0;exitY=0.74;entryX=0.251;entryY=0.071;entryDx=0;entryDy=0;entryPerimeter=0;" parent="1" source="4" target="YCU8dDSVkOPkKwDlfOYQ-16" edge="1">
          <mxGeometry x="0.1087" y="13" relative="1" as="geometry">
            <Array as="points">
              <mxPoint x="520" y="90" />
              <mxPoint x="447" y="147" />
            </Array>
            <mxPoint x="320" y="172.53999999999996" as="targetPoint" />
            <mxPoint as="offset" />
          </mxGeometry>
        </mxCell>
        <mxCell id="9" value="Sets goals" style="curved=1;startArrow=none;endArrow=block;exitX=0;exitY=0.97;entryX=0.395;entryY=-0.007;entryDx=0;entryDy=0;entryPerimeter=0;" parent="1" source="4" target="YCU8dDSVkOPkKwDlfOYQ-16" edge="1">
          <mxGeometry relative="1" as="geometry">
            <Array as="points">
              <mxPoint x="590" y="110" />
              <mxPoint x="600" y="210" />
            </Array>
            <mxPoint x="320" y="180.64" as="targetPoint" />
          </mxGeometry>
        </mxCell>
        <mxCell id="10" value="Tracks nutrition" style="curved=1;startArrow=none;endArrow=block;exitX=0.5;exitY=1;" parent="1" source="4" target="YCU8dDSVkOPkKwDlfOYQ-16" edge="1">
          <mxGeometry x="-0.3768" relative="1" as="geometry">
            <Array as="points">
              <mxPoint x="673" y="147" />
            </Array>
            <mxPoint x="320" y="184.96000000000004" as="targetPoint" />
            <mxPoint as="offset" />
          </mxGeometry>
        </mxCell>
        <mxCell id="11" value="Receives recommendations" style="curved=1;startArrow=none;endArrow=block;exitX=1;exitY=0.8;entryX=0.67;entryY=0.014;entryDx=0;entryDy=0;entryPerimeter=0;" parent="1" source="4" target="YCU8dDSVkOPkKwDlfOYQ-16" edge="1">
          <mxGeometry relative="1" as="geometry">
            <Array as="points">
              <mxPoint x="850" y="110" />
              <mxPoint x="850" y="147" />
            </Array>
            <mxPoint x="320" y="188.7399999999999" as="targetPoint" />
          </mxGeometry>
        </mxCell>
        <mxCell id="12" value="Sends progress updates" style="curved=1;startArrow=none;endArrow=block;exitX=1;exitY=0;entryX=1;entryY=0.64;exitDx=0;exitDy=0;" parent="1" source="YCU8dDSVkOPkKwDlfOYQ-16" target="4" edge="1">
          <mxGeometry x="-0.5666" y="-4" relative="1" as="geometry">
            <Array as="points">
              <mxPoint x="800" y="240" />
              <mxPoint x="1038" y="123" />
            </Array>
            <mxPoint x="303" y="204.44000000000005" as="sourcePoint" />
            <mxPoint as="offset" />
          </mxGeometry>
        </mxCell>
        <mxCell id="YCU8dDSVkOPkKwDlfOYQ-16" value="&lt;font style=&quot;font-size: 18px;&quot;&gt;Gym And Fitness App&lt;/font&gt;" style="ellipse;whiteSpace=wrap;html=1;" vertex="1" parent="1">
          <mxGeometry x="593" y="260" width="160" height="140" as="geometry" />
        </mxCell>
        <mxCell id="YCU8dDSVkOPkKwDlfOYQ-20" value="Create&#xa;Fitness Profile" style="curved=1;startArrow=none;endArrow=block;entryX=0.063;entryY=0.3;entryDx=0;entryDy=0;entryPerimeter=0;exitX=0;exitY=0.5;exitDx=0;exitDy=0;" edge="1" parent="1" source="4" target="YCU8dDSVkOPkKwDlfOYQ-16">
          <mxGeometry x="0.1087" y="13" relative="1" as="geometry">
            <Array as="points">
              <mxPoint x="443" y="90" />
              <mxPoint x="370" y="147" />
            </Array>
            <mxPoint x="620" y="50" as="sourcePoint" />
            <mxPoint x="563" y="250" as="targetPoint" />
            <mxPoint as="offset" />
          </mxGeometry>
        </mxCell>
        <mxCell id="YCU8dDSVkOPkKwDlfOYQ-31" value="" style="endArrow=none;html=1;rounded=0;" edge="1" parent="1">
          <mxGeometry width="50" height="50" relative="1" as="geometry">
            <mxPoint x="346" y="237" as="sourcePoint" />
            <mxPoint x="346" y="167" as="targetPoint" />
          </mxGeometry>
        </mxCell>
        <mxCell id="YCU8dDSVkOPkKwDlfOYQ-32" value="" style="endArrow=none;html=1;rounded=0;" edge="1" parent="1">
          <mxGeometry width="50" height="50" relative="1" as="geometry">
            <mxPoint x="990" y="200" as="sourcePoint" />
            <mxPoint x="990" y="130" as="targetPoint" />
          </mxGeometry>
        </mxCell>
        <mxCell id="YCU8dDSVkOPkKwDlfOYQ-33" value="" style="endArrow=none;html=1;rounded=0;" edge="1" parent="1">
          <mxGeometry width="50" height="50" relative="1" as="geometry">
            <mxPoint x="698" y="440" as="sourcePoint" />
            <mxPoint x="648" y="440" as="targetPoint" />
          </mxGeometry>
        </mxCell>
        <mxCell id="YCU8dDSVkOPkKwDlfOYQ-34" value="" style="endArrow=none;html=1;rounded=0;" edge="1" parent="1">
          <mxGeometry width="50" height="50" relative="1" as="geometry">
            <mxPoint x="700" y="-10" as="sourcePoint" />
            <mxPoint x="650" y="-10" as="targetPoint" />
          </mxGeometry>
        </mxCell>
      </root>
    </mxGraphModel>
  </diagram>
</mxfile>
